<svg width="21" height="20" viewBox="0 0 21 20" fill="none" xmlns="http://www.w3.org/2000/svg">
<path fill-rule="evenodd" clip-rule="evenodd" d="M7.20628 1.07637C5.18708 2.05126 4.76171 5.0348 6.34772 7.09651C6.88037 7.78876 7.0851 7.91339 7.78147 7.96825C9.20129 8.08009 9.98136 7.1748 10.4024 4.92713C10.6877 3.40439 10.3849 2.17438 9.52483 1.36192C8.84675 0.721546 8.12522 0.632658 7.20628 1.07637ZM13.3363 1.56524C12.7866 1.7909 12.3967 2.16429 11.9477 2.89507C11.3897 3.80317 11.3278 4.04351 11.3643 5.15716C11.4697 8.37038 13.4517 9.8632 15.3857 8.18593C16.7769 6.97969 17.331 4.20439 16.4918 2.64791C15.8164 1.3953 14.6904 1.00907 13.3363 1.56524ZM1.91159 7.30699C0.247282 8.72727 -0.0204703 10.9283 1.27876 12.5069C1.67074 12.9831 2.11093 13.2774 2.60294 13.3925C3.25414 13.5447 3.42647 13.4944 4.07926 12.961C4.84412 12.336 5.58096 10.8533 5.66653 9.76699C5.73363 8.9152 5.07335 7.48828 4.39371 7.01614C3.46247 6.36934 2.9384 6.43078 1.91159 7.30699ZM18.1165 7.86428C17.0052 8.15345 15.2365 10.2312 14.8788 11.6676C14.3376 13.8403 16.5208 15.3117 18.39 14.034C19.1626 13.506 20.1533 12.0433 20.3945 11.0753C20.8791 9.12878 19.6913 7.45448 18.1165 7.86428ZM9.23699 10.7165C8.96182 10.7975 7.51681 11.863 6.02587 13.0842C5.00195 13.9049 4.3596 14.2748 3.48014 15.2862C3.13697 16.0546 3.12257 17.1597 3.76442 17.8025C4.63626 18.676 5.44162 18.8166 7.7133 18.4916C9.64376 18.2157 9.68071 18.2176 11.7837 18.7132C14.8809 19.4432 16.2236 19.1234 16.6621 17.5516C16.9192 16.63 16.4749 15.9586 15.0959 15.1852C14.01 14.5762 13.4054 13.9179 12.3748 12.2229C11.5692 10.8979 10.4475 10.3593 9.23699 10.7165Z" fill="#FFCF32"/>
</svg>
