<svg width="26" height="24" viewBox="0 0 26 24" fill="none" xmlns="http://www.w3.org/2000/svg">
<path d="M11.8798 14.3773L9.19918 10.0698C9.07487 9.87006 9.00624 9.64067 9.00041 9.40544C8.99457 9.17022 9.05175 8.93771 9.16602 8.73202C9.28028 8.52632 9.44747 8.35493 9.65026 8.2356C9.85306 8.11626 10.0841 8.05333 10.3194 8.05332H15.6806C15.9159 8.05333 16.1469 8.11626 16.3497 8.2356C16.5525 8.35493 16.7197 8.52632 16.834 8.73202C16.9482 8.93771 17.0054 9.17022 16.9996 9.40544C16.9938 9.64067 16.9251 9.87006 16.8008 10.0698L14.1202 14.3778C14.0017 14.5681 13.8367 14.7251 13.6407 14.834C13.4447 14.9429 13.2242 15 13 15C12.7758 15 12.5553 14.9429 12.3593 14.834C12.1633 14.7251 11.9983 14.5681 11.8798 14.3778V14.3773Z" fill="#E6E6E6"/>
</svg>
