<svg width="24" height="24" viewBox="0 0 24 24" fill="none" xmlns="http://www.w3.org/2000/svg">
<path d="M20.7778 22L13.4722 14.6944C12.9167 15.1759 12.2689 15.5509 11.5289 15.8194C10.7889 16.088 10.0015 16.2222 9.16667 16.2222C7.16367 16.2222 5.46847 15.5278 4.08108 14.1389C2.69369 12.75 2 11.0741 2 9.11111C2 7.14815 2.69444 5.47222 4.08333 4.08333C5.47222 2.69444 7.15278 2 9.125 2C11.0972 2 12.7731 2.69444 14.1528 4.08333C15.5324 5.47222 16.2222 7.14954 16.2222 9.11528C16.2222 9.9088 16.0926 10.6759 15.8333 11.4167C15.5741 12.1574 15.1852 12.8519 14.6667 13.5L22 20.7778L20.7778 22ZM9.13889 14.5556C10.6435 14.5556 11.9225 14.0231 12.9757 12.9583C14.0289 11.8935 14.5556 10.6111 14.5556 9.11111C14.5556 7.61111 14.0289 6.3287 12.9757 5.26389C11.9225 4.19907 10.6435 3.66667 9.13889 3.66667C7.61883 3.66667 6.32678 4.19907 5.26272 5.26389C4.19868 6.3287 3.66667 7.61111 3.66667 9.11111C3.66667 10.6111 4.19868 11.8935 5.26272 12.9583C6.32678 14.0231 7.61883 14.5556 9.13889 14.5556Z" fill="#E6E6E6"/>
</svg>
